<svg xmlns="http://www.w3.org/2000/svg" viewBox="0 0 210.38 211.61"><defs><style>.cls-1{fill:#b161e0;stroke:#4b29b2;stroke-width:7.41px;}.cls-1,.cls-10,.cls-11,.cls-12,.cls-13,.cls-2,.cls-3,.cls-6,.cls-8,.cls-9{stroke-linecap:round;}.cls-1,.cls-10,.cls-11,.cls-12,.cls-13,.cls-2,.cls-3,.cls-4,.cls-5,.cls-6,.cls-8,.cls-9{stroke-linejoin:round;}.cls-2{fill:#ffa1d5;}.cls-2,.cls-3,.cls-4,.cls-5{stroke:#d12c7f;}.cls-10,.cls-11,.cls-2,.cls-3,.cls-6,.cls-8,.cls-9{stroke-width:4.32px;}.cls-10,.cls-11,.cls-12,.cls-13,.cls-3,.cls-4,.cls-5,.cls-8{fill:none;}.cls-4{stroke-width:6.17px;}.cls-5{stroke-width:8.02px;}.cls-6,.cls-7{fill:#5ae4f2;}.cls-6,.cls-8{stroke:#1980ba;}.cls-8{stroke-dasharray:7.29 7.29;}.cls-9{fill:#c09fff;stroke:#7719af;}.cls-10,.cls-11{stroke:#efdeff;}.cls-11{stroke-dasharray:7.41;}.cls-12{stroke:#deb0ff;stroke-width:6px;}.cls-13{stroke:#ffdcf3;stroke-width:5px;}</style></defs><title>Ресурс 5</title><g id="Слой_2" data-name="Слой 2"><g id="folder"><rect class="cls-1" x="11.89" y="75.61" width="161.12" height="132.29" rx="7.41"/><polygon class="cls-2" points="17.56 48.17 54.97 25.47 80.97 67.48 35.14 83.53 17.56 48.17"/><path class="cls-2" d="M2.16,64.53s24.58-33.8,47.2-39.46S19.16,65.65,39,63.38,80.18,2.16,80.18,2.16L117.1,71.29S87,116.88,69.35,116s28-37.45,14.72-36.63-51.45,54.25-51.45,54.25Z"/><line class="cls-3" x1="65.62" y1="114.08" x2="35.17" y2="62.9"/><path class="cls-2" d="M47.59,79.68c19.81-2.27,41.2-61.22,41.2-61.22l36.93,69.13S95.57,133.17,78,132.32"/><path class="cls-2" d="M9.52,76.36s17.7-23.21,36.1-34.53"/><line class="cls-4" x1="74.53" y1="15.41" x2="83.75" y2="31.45"/><line class="cls-4" x1="68.55" y1="29.53" x2="77.77" y2="45.56"/><line class="cls-4" x1="60.83" y1="43.32" x2="69.91" y2="59.1"/><line class="cls-4" x1="49.47" y1="56.95" x2="58.78" y2="72.6"/><line class="cls-4" x1="41.69" y1="29.52" x2="47.35" y2="39.23"/><line class="cls-4" x1="30.73" y1="37.22" x2="36.39" y2="46.93"/><line class="cls-4" x1="20.03" y1="45.52" x2="26.49" y2="57.04"/><line class="cls-4" x1="10.13" y1="55.63" x2="16.59" y2="67.14"/><line class="cls-4" x1="48.89" y1="37.84" x2="56.59" y2="48.8"/><line class="cls-4" x1="41.46" y1="49.2" x2="48.66" y2="57.83"/><line class="cls-5" x1="70.82" y1="53.29" x2="104.26" y2="114.63"/><rect class="cls-6" x="95.11" y="42.65" width="105.87" height="76.21" rx="7.41" transform="matrix(0.95, -0.31, 0.31, 0.95, -17.66, 49.45)"/><rect class="cls-7" x="100.79" y="48.31" width="94.51" height="64.89" rx="7.41" transform="translate(-17.66 49.45) rotate(-17.91)"/><rect class="cls-8" x="100.79" y="48.31" width="94.51" height="64.89" rx="7.41" transform="translate(-17.66 49.45) rotate(-17.91)"/><path class="cls-9" d="M159.21,74.18l-23-4.93a3.27,3.27,0,0,0-3.79,4.2l7.24,22.39A3.27,3.27,0,0,0,145.17,97L161,79.56A3.27,3.27,0,0,0,159.21,74.18Z"/><line class="cls-10" x1="137.55" y1="74.24" x2="146.11" y2="75.78"/><line class="cls-11" x1="150.79" y1="76.95" x2="155.96" y2="77.97"/><path class="cls-1" d="M168.49,207.9H20.94c-3.73,0-6.79-2.61-6.79-5.81l18.1-96.36c0-3.19,3-5.81,6.78-5.81H186.58c3.74,0,6.79,2.62,6.79,5.81l-18.09,96.36C175.28,205.29,172.22,207.9,168.49,207.9Z"/><line class="cls-12" x1="126.16" y1="111.59" x2="177.16" y2="111.59"/><line class="cls-12" x1="92.16" y1="111.59" x2="112.16" y2="111.59"/><line class="cls-13" x1="89.16" y1="37.59" x2="96.16" y2="48.59"/></g></g></svg>