<svg xmlns="http://www.w3.org/2000/svg" viewBox="0 0 191.19 186.61"><defs><style>.cls-1{fill:#b161e0;stroke:#4b29b2;stroke-width:7.41px;}.cls-1,.cls-10,.cls-11,.cls-12,.cls-13,.cls-2,.cls-3,.cls-6,.cls-7,.cls-9{stroke-linecap:round;}.cls-1,.cls-10,.cls-11,.cls-12,.cls-13,.cls-2,.cls-3,.cls-4,.cls-5,.cls-6,.cls-7,.cls-9{stroke-linejoin:round;}.cls-2{fill:#ffa1d5;}.cls-2,.cls-3,.cls-4,.cls-5{stroke:#d12c7f;}.cls-10,.cls-11,.cls-12,.cls-2,.cls-3,.cls-7,.cls-9{stroke-width:4.32px;}.cls-11,.cls-12,.cls-13,.cls-3,.cls-4,.cls-5,.cls-6,.cls-9{fill:none;}.cls-4{stroke-width:6.17px;}.cls-5{stroke-width:8.02px;}.cls-6{stroke:#ffdcf3;stroke-width:5px;}.cls-7,.cls-8{fill:#5ae4f2;}.cls-7,.cls-9{stroke:#1980ba;}.cls-9{stroke-dasharray:7.29 7.29;}.cls-10{fill:#c09fff;stroke:#7719af;}.cls-11,.cls-12{stroke:#efdeff;}.cls-12{stroke-dasharray:7.41;}.cls-13{stroke:#deb0ff;stroke-width:6px;}</style></defs><title>2</title><g id="Слой_2" data-name="Слой 2"><g id="folder"><g id="_2" data-name="2"><rect class="cls-1" x="3.7" y="50.61" width="161.12" height="132.29" rx="7.41"/><polygon class="cls-2" points="23.37 48.17 60.78 25.47 86.78 67.48 40.95 83.53 23.37 48.17"/><path class="cls-2" d="M8,64.53s24.58-33.8,47.2-39.46S25,65.65,44.78,63.38,86,2.16,86,2.16l36.92,69.13S92.76,116.88,75.16,116s28-37.45,14.72-36.63-51.45,54.25-51.45,54.25Z"/><line class="cls-3" x1="71.43" y1="114.08" x2="40.98" y2="62.9"/><path class="cls-2" d="M53.4,79.68c19.81-2.27,41.2-61.22,41.2-61.22l36.93,69.13s-30.15,45.58-47.76,44.73"/><path class="cls-2" d="M15.34,76.36S33,53.15,51.43,41.83"/><line class="cls-4" x1="80.34" y1="15.41" x2="89.56" y2="31.45"/><line class="cls-4" x1="74.36" y1="29.53" x2="83.58" y2="45.56"/><line class="cls-4" x1="66.64" y1="43.32" x2="75.72" y2="59.1"/><line class="cls-4" x1="55.28" y1="56.95" x2="64.59" y2="72.6"/><line class="cls-4" x1="47.5" y1="29.52" x2="53.16" y2="39.23"/><line class="cls-4" x1="36.54" y1="37.22" x2="42.2" y2="46.93"/><line class="cls-4" x1="25.84" y1="45.52" x2="32.3" y2="57.04"/><line class="cls-4" x1="15.94" y1="55.63" x2="22.4" y2="67.14"/><line class="cls-4" x1="54.7" y1="37.84" x2="62.4" y2="48.8"/><line class="cls-4" x1="47.27" y1="49.2" x2="54.47" y2="57.83"/><line class="cls-5" x1="76.63" y1="53.29" x2="110.07" y2="114.63"/><line class="cls-6" x1="94.97" y1="35.59" x2="101.97" y2="46.59"/><rect class="cls-7" x="75.92" y="35.65" width="105.87" height="76.21" rx="7.41" transform="translate(-16.44 43.21) rotate(-17.91)"/><rect class="cls-8" x="81.6" y="41.31" width="94.51" height="64.89" rx="7.41" transform="translate(-16.44 43.21) rotate(-17.91)"/><rect class="cls-9" x="81.6" y="41.31" width="94.51" height="64.89" rx="7.41" transform="translate(-16.44 43.21) rotate(-17.91)"/><path class="cls-10" d="M140,67.18l-23-4.93a3.27,3.27,0,0,0-3.79,4.2l7.24,22.39A3.27,3.27,0,0,0,126,90l15.78-17.47A3.27,3.27,0,0,0,140,67.18Z"/><line class="cls-11" x1="118.36" y1="67.24" x2="126.92" y2="68.78"/><line class="cls-12" x1="131.6" y1="69.95" x2="136.77" y2="70.97"/><path class="cls-1" d="M160.3,182.9H12.75C9,182.9,6,180.29,6,177.09l18.1-96.36c0-3.19,3.05-5.81,6.78-5.81H178.39c3.74,0,6.79,2.62,6.79,5.81l-18.09,96.36C167.09,180.29,164,182.9,160.3,182.9Z"/><line class="cls-13" x1="117.97" y1="86.59" x2="168.97" y2="86.59"/><line class="cls-13" x1="83.97" y1="86.59" x2="103.97" y2="86.59"/></g></g></g></svg>